<?xml version="1.0" encoding="UTF-8" standalone="no"?><!DOCTYPE svg PUBLIC "-//W3C//DTD SVG 1.1//EN" "http://www.w3.org/Graphics/SVG/1.1/DTD/svg11.dtd"><svg width="100%" height="100%" viewBox="0 0 2481 3508" version="1.1" xmlns="http://www.w3.org/2000/svg" xmlns:xlink="http://www.w3.org/1999/xlink" xml:space="preserve" xmlns:serif="http://www.serif.com/" style="fill-rule:evenodd;clip-rule:evenodd;stroke-linecap:round;stroke-linejoin:round;stroke-miterlimit:1.5;"><g><ellipse cx="1248.5" cy="1712.74" rx="1239.36" ry="1114.26" style="fill:#ecf0ef;"/><path d="M116.525,2307.69c-1.229,-204.669 238.812,-350.691 425.908,-157.613l184.324,1.576c49.218,-108.839 275.086,-145.84 365.463,-0l608.176,-0c167.359,-179.511 415.782,-81.294 435.42,140.374c0,319.745 -482.964,345.925 -482.964,-0l-503.29,-0c-0,332.529 -469.181,368.52 -469.181,-0l-93.101,-0c-0,312.843 -470.755,328.506 -470.755,15.663Z" style="fill:#111729;"/><g><circle cx="342.291" cy="2289.09" r="116.646" style="fill:#edd4b3;"/><circle cx="908.529" cy="2291.12" r="116.646" style="fill:#edd4b3;"/><circle cx="1888.18" cy="2303.01" r="116.646" style="fill:#edd4b3;stroke:#fff;stroke-width:1px;"/></g><path d="M505.381,1877.39c2.934,-2.844 4.498,-6.817 4.289,-10.898c-6.451,-129.747 8.909,-258.298 34.385,-386.296c0.412,-2.064 2.227,-3.548 4.332,-3.541c34.842,0.128 310.182,1.133 350.728,1.281c2.75,0.01 4.972,2.248 4.962,4.998c-0.148,41.847 -1.186,334.61 -1.373,387.171c-0.015,4.466 3.576,8.109 8.043,8.155c24.089,0.251 95.486,0.993 122.751,1.277c2.841,0.029 5.577,-1.078 7.597,-3.076c2.02,-1.998 3.158,-4.72 3.16,-7.561c0.053,-69.321 0.344,-451.902 0.379,-498.415c0.002,-2.563 -2.065,-4.648 -4.628,-4.668c-48.107,-0.375 -456.021,-3.557 -519.424,-4.051c-4.736,-0.037 -8.791,3.386 -9.551,8.061c-37.213,234.438 -85.024,312.814 -114.891,495.507c-0.91,5.44 2.19,10.756 7.374,12.641c47.286,17.183 82.394,18.489 101.867,-0.585Z" style="fill:#111729;"/><path d="M1269.86,2077.02c-5.948,-0.001 -10.769,-4.823 -10.769,-10.77c0,-107.544 0,-986.541 0,-1089.81c0,-2.624 1.043,-5.14 2.898,-6.996c1.856,-1.855 4.372,-2.898 6.997,-2.898l1109.54,0c25.962,0 47.008,21.046 47.008,47.008c0,190.712 0,903.064 0,1040.57c0,6.115 -2.429,11.979 -6.753,16.303c-4.325,4.323 -10.189,6.752 -16.304,6.751c-153.576,-0.023 -1025.59,-0.149 -1132.62,-0.164Z" style="fill:#111729;"/><g><g><circle cx="1465.52" cy="1113.95" r="69.231" style="fill:#e5ceb7;"/><circle cx="1462.59" cy="1315.61" r="69.231" style="fill:#e5ceb7;"/><circle cx="1457.48" cy="1520.26" r="69.231" style="fill:#e5ceb7;"/><circle cx="1464.32" cy="1716.16" r="69.231" style="fill:#e5ceb7;"/><circle cx="1466.8" cy="1923.47" r="69.231" style="fill:#e5ceb7;"/><circle cx="1686.15" cy="1113.95" r="69.231" style="fill:#e5ceb7;"/><circle cx="1683.22" cy="1315.61" r="69.231" style="fill:#e5ceb7;"/><circle cx="1678.12" cy="1520.26" r="69.231" style="fill:#e5ceb7;"/><circle cx="1684.95" cy="1716.16" r="69.231" style="fill:#e5ceb7;"/><circle cx="1687.43" cy="1923.47" r="69.231" style="fill:#e5ceb7;"/><circle cx="1901.72" cy="1113.59" r="69.231" style="fill:#e5ceb7;"/><circle cx="1898.78" cy="1315.24" r="69.231" style="fill:#e5ceb7;"/><circle cx="1893.68" cy="1519.89" r="69.231" style="fill:#e5ceb7;"/><circle cx="1900.51" cy="1715.8" r="69.231" style="fill:#e5ceb7;"/><circle cx="1903" cy="1923.11" r="69.231" style="fill:#e5ceb7;"/><circle cx="2128.03" cy="1114.77" r="69.231" style="fill:#e5ceb7;"/><circle cx="2125.1" cy="1316.42" r="69.231" style="fill:#e5ceb7;"/><circle cx="2119.99" cy="1521.07" r="69.231" style="fill:#e5ceb7;"/><circle cx="2126.83" cy="1716.98" r="69.231" style="fill:#e5ceb7;"/></g><circle cx="2129.31" cy="1924.29" r="69.231" style="fill:#e5ceb7;"/></g></g></svg>